Coordinates
version=1
nRows=16
nColumns=22
inDegrees=yes

Units are S.I. units (second, meters, Newtons, ...)
If the header above contains a line with 'inDegrees', this indicates whether rotational values are in degrees (yes) or radians (no).

endheader
time	pelvis_tilt	pelvis_list	pelvis_rotation	pelvis_tx	pelvis_ty	pelvis_tz	hip_flexion_r	hip_adduction_r	hip_rotation_r	knee_angle_r	ankle_angle_r	subtalar_angle_r	hip_flexion_l	hip_adduction_l	hip_rotation_l	knee_angle_l	ankle_angle_l	subtalar_angle_l	lumbar_extension	lumbar_bending	lumbar_rotation
      2.53000000	      4.71704903	      4.97317087	     -7.32481197	      0.21311655	      0.89475099	     -0.22394047	     24.64968209	     -9.34474219	     -9.11076601	    -44.03418499	     15.86521423	     -8.89450155	     -7.97512382	      8.00725455	     -9.95424998	    -13.83533321	     18.47827161	     -2.11166513	    -11.52161441	     -7.58960084	     -2.25999858
      2.54000000	      4.93698821	      4.81918071	     -7.19064557	      0.22341195	      0.89338964	     -0.22196830	     24.55174765	     -9.32098982	    -10.66725122	    -41.11006959	     15.87837446	     -8.15357882	     -9.08464246	      7.80937967	     -9.86324603	    -13.68403392	     19.02445061	     -2.04839187	    -11.78073805	     -7.46754985	     -2.47885380
      2.55000000	      5.18488360	      4.61962545	     -7.06214468	      0.23383319	      0.89198456	     -0.21984244	     24.28747394	     -9.21027614	    -12.40235494	    -38.06401488	     15.86907958	     -7.29088929	    -10.21905869	      7.55372885	     -9.77624359	    -13.56802388	     19.55864974	     -1.97400226	    -12.06196426	     -7.29694343	     -2.71736122
      2.56000000	      5.44439958	      4.37388547	     -6.91877040	      0.24438635	      0.89052446	     -0.21758723	     23.88439734	     -9.01737312	    -14.38466613	    -34.94198284	     15.79139943	     -6.49840706	    -11.33090724	      7.22877971	     -9.69725132	    -13.54830850	     20.11607898	     -1.89000362	    -12.34759047	     -7.08075592	     -2.90437623
      2.57000000	      5.70486071	      4.08007147	     -6.77819617	      0.25510421	      0.88900384	     -0.21515509	     23.37680722	     -8.69699405	    -16.51724717	    -31.79156810	     15.67539131	     -5.62067247	    -12.44179747	      6.83547863	     -9.65689078	    -13.56365402	     20.64347177	     -1.77396666	    -12.61639762	     -6.81273607	     -3.11350520
      2.58000000	      5.94786891	      3.75068296	     -6.63211889	      0.26593734	      0.88739774	     -0.21257664	     22.81879242	     -8.24996793	    -18.74593662	    -28.68050800	     15.50154443	     -4.72094325	    -13.49735187	      6.37994595	     -9.64555317	    -13.67183929	     21.14952385	     -1.62421614	    -12.85618743	     -6.50125817	     -3.29460871
      2.59000000	      6.15109056	      3.40238690	     -6.49520835	      0.27690411	      0.88567403	     -0.20981305	     22.28164368	     -7.67859828	    -20.96286439	    -25.70184422	     15.26875173	     -3.79262814	    -14.48876567	      5.88056030	     -9.67948281	    -13.84199862	     21.63518305	     -1.43384238	    -13.03251222	     -6.16935473	     -3.48534795
      2.60000000	      6.30670916	      3.04424683	     -6.37583425	      0.28800533	      0.88382608	     -0.20690608	     21.80442267	     -6.99245762	    -23.03827761	    -22.92490452	     15.06703542	     -3.04112203	    -15.42266248	      5.35837493	     -9.72094308	    -14.04275009	     22.11742416	     -1.25319955	    -13.13680407	     -5.81327215	     -3.67949100
      2.61000000	      6.38729339	      2.70758272	     -6.28052215	      0.29921049	      0.88182813	     -0.20386714	     21.47026014	     -6.25416380	    -24.90339557	    -20.47344975	     14.81037947	     -2.15272678	    -16.23391260	      4.84013147	     -9.78990611	    -14.33380458	     22.52833560	     -1.01177393	    -13.13945653	     -5.47056188	     -3.85447804
      2.62000000	      6.42049490	      2.39304591	     -6.20660612	      0.31052709	      0.87976167	     -0.20074921	     21.24146851	     -5.48381261	    -26.43493316	    -18.37089953	     14.62492153	     -1.53234176	    -16.97198542	      4.33896923	     -9.83876257	    -14.67511031	     22.85346972	     -0.83038620	    -13.07702934	     -5.12824028	     -4.07128175
      2.63000000	      6.37449538	      2.10665056	     -6.14900365	      0.32200583	      0.87760927	     -0.19758521	     21.16376558	     -4.72992774	    -27.63888177	    -16.69349520	     14.47744372	     -1.01153883	    -17.60433694	      3.85843637	     -9.86610294	    -15.06691693	     23.11571671	     -0.66012383	    -12.90296808	     -4.78665298	     -4.33233913
      2.64000000	      6.26919189	      1.84681064	     -6.10525770	      0.33362836	      0.87543626	     -0.19439568	     21.20952164	     -4.02026679	    -28.50723489	    -15.46750601	     14.38733785	     -0.66090321	    -18.13783899	      3.40033542	     -9.82231478	    -15.53449504	     23.29064909	     -0.52004644	    -12.64875646	     -4.44388936	     -4.61390199
      2.65000000	      6.11749496	      1.60954501	     -6.07286803	      0.34543862	      0.87332141	     -0.19118712	     21.34122777	     -3.36741450	    -29.04889365	    -14.68089952	     14.31448742	     -0.48045224	    -18.59853994	      2.96265321	     -9.71469500	    -16.05376776	     23.27672353	     -0.40144715	    -12.32498414	     -4.09157218	     -4.97193358
      2.66000000	      5.92468135	      1.40518053	     -6.05668303	      0.35742550	      0.87129032	     -0.18796101	     21.55449229	     -2.79585356	    -29.28228855	    -14.34017136	     14.24507173	     -0.51595107	    -18.97051300	      2.55839338	     -9.51554009	    -16.66124513	     23.03639091	     -0.34981920	    -11.94088481	     -3.74296972	     -5.36979951
      2.67000000	      5.73199703	      1.18214595	     -6.03628002	      0.36965699	      0.86943672	     -0.18472304	     21.75515211	     -2.25608902	    -29.29845262	    -14.36823122	     14.20720273	     -0.74484924	    -19.31333757	      2.13270941	     -9.20803230	    -17.33987026	     22.67961333	     -0.26048186	    -11.54077304	     -3.33756019	     -5.83126429
      2.68000000	      5.49717820	      0.97873569	     -6.04345615	      0.38208227	      0.86768554	     -0.18141946	     22.01341662	     -1.76541098	    -29.00467434	    -14.75455543	     14.24347163	     -1.77955056	    -19.55671141	      1.72672407	     -8.81779775	    -18.11614497	     22.14540420	      0.03586558	    -11.07371716	     -2.92064121	     -6.35156199
